# Blender v2.83.20 OBJ File: 'computer_graphics_dyson_V15_detect5.blend'
# www.blender.org
mtllib EngineBody1.mtl
o VaccumCleanerBody5(ButtonRED)_Cylinder.013
v 0.009150 4.097289 -4.319096
v 0.002234 4.094262 -4.316975
v -0.005270 4.092397 -4.315669
v -0.013073 4.091767 -4.315228
v -0.020877 4.092397 -4.315669
v -0.028381 4.094262 -4.316975
v -0.035296 4.097289 -4.319096
v 0.009150 4.061981 -4.369593
v 0.002234 4.059014 -4.367395
v -0.005270 4.057187 -4.366041
v -0.013073 4.056570 -4.365584
v -0.020877 4.057187 -4.366041
v -0.028381 4.059014 -4.367395
v -0.035296 4.061981 -4.369593
v 0.002234 4.081968 -4.308381
v 0.009150 4.084995 -4.310501
v -0.005270 4.080103 -4.307076
v -0.013073 4.079473 -4.306634
v -0.020877 4.080103 -4.307076
v -0.028381 4.081968 -4.308381
v -0.035296 4.084995 -4.310501
v 0.009150 4.049687 -4.360999
v 0.002234 4.046720 -4.358801
v -0.005270 4.044893 -4.357447
v -0.013073 4.044276 -4.356990
v -0.020877 4.044893 -4.357447
v -0.028381 4.046720 -4.358801
v -0.035296 4.049687 -4.360999
vt 0.437500 1.000000
vt 0.406250 1.000000
vt 0.437500 1.000000
vt 0.562500 1.000000
vt 0.593750 1.000000
vt 0.593750 1.000000
vt 0.468750 0.875000
vt 0.437500 0.875000
vt 0.437500 0.875000
vt 0.500000 1.000000
vt 0.531250 1.000000
vt 0.531250 1.000000
vt 0.406250 0.875000
vt 0.406250 0.875000
vt 0.468750 1.000000
vt 0.468750 1.000000
vt 0.562500 0.875000
vt 0.593750 0.875000
vt 0.562500 1.000000
vt 0.531250 0.875000
vt 0.500000 0.875000
vt 0.468750 0.875000
vt 0.500000 0.875000
vt 0.500000 1.000000
vt 0.406250 1.000000
vt 0.531250 0.875000
vt 0.562500 0.875000
vt 0.593750 0.875000
vn -0.0004 0.5729 0.8196
vn -0.6813 0.0134 0.7318
vn -0.2787 -0.1583 0.9472
vn 0.0004 0.5729 0.8196
vn 0.6814 0.0134 0.7318
vn 0.8241 0.3245 0.4642
vn 0.0059 -0.5729 -0.8195
vn -0.2721 -0.9460 -0.1763
vn 0.0122 -0.5729 -0.8195
vn 0.0000 0.5730 0.8196
vn 0.1421 -0.1922 0.9710
vn 0.0001 0.5729 0.8196
vn -0.6763 -0.6861 -0.2681
vn -0.8212 -0.3269 -0.4676
vn -0.0001 0.5729 0.8196
vn -0.1421 -0.1922 0.9710
vn 0.2721 -0.9460 -0.1763
vn 0.6763 -0.6861 -0.2681
vn 0.2787 -0.1583 0.9472
vn 0.1387 -0.9785 -0.1522
vn 0.0000 -0.9895 -0.1441
vn -0.1387 -0.9785 -0.1522
vn 0.0000 -0.5730 -0.8195
vn 0.0000 -0.2037 0.9790
vn -0.8241 0.3245 0.4642
vn -0.0059 -0.5730 -0.8195
vn -0.0122 -0.5729 -0.8195
vn 0.8212 -0.3269 -0.4676
usemtl VaccumCleanerBody5(RED)
s 1
f 6/1/1 21/2/2 20/3/3
f 2/4/4 16/5/5 1/6/6
f 12/7/7 27/8/8 13/9/9
f 4/10/10 17/11/11 3/12/12
f 13/9/9 28/13/13 14/14/14
f 5/15/15 20/3/3 19/16/16
f 16/5/5 23/17/17 22/18/18
f 15/19/19 24/20/20 23/17/17
f 17/11/11 25/21/21 24/20/20
f 25/21/21 19/16/16 26/22/22
f 26/22/22 20/3/3 27/8/8
f 27/8/8 21/2/2 28/13/13
f 11/23/23 26/22/22 12/7/7
f 11/23/23 24/20/20 25/21/21
f 4/10/10 19/16/16 18/24/24
f 14/14/14 21/2/2 7/25/25
f 10/26/26 23/17/17 24/20/20
f 3/12/12 15/19/19 2/4/4
f 9/27/27 22/18/18 23/17/17
f 8/28/28 16/5/5 22/18/18
f 6/1/1 7/25/25 21/2/2
f 2/4/4 15/19/19 16/5/5
f 12/7/7 26/22/22 27/8/8
f 4/10/10 18/24/24 17/11/11
f 13/9/9 27/8/8 28/13/13
f 5/15/15 6/1/1 20/3/3
f 16/5/5 15/19/19 23/17/17
f 15/19/19 17/11/11 24/20/20
f 17/11/11 18/24/24 25/21/21
f 25/21/21 18/24/24 19/16/16
f 26/22/22 19/16/16 20/3/3
f 27/8/8 20/3/3 21/2/2
f 11/23/23 25/21/21 26/22/22
f 11/23/23 10/26/26 24/20/20
f 4/10/10 5/15/15 19/16/16
f 14/14/14 28/13/13 21/2/2
f 10/26/26 9/27/27 23/17/17
f 3/12/12 17/11/11 15/19/19
f 9/27/27 8/28/28 22/18/18
f 8/28/28 1/6/6 16/5/5
