# Blender v2.83.20 OBJ File: 'computer_graphics_dyson_V15_detect5.blend'
# www.blender.org
mtllib EngineBody11.mtl
o EngineBody3(Display)_Cylinder.023
v -0.013586 4.435437 -4.446253
v -0.012414 4.435361 -4.446340
v -0.060064 4.441595 -4.439200
v -0.036706 4.436934 -4.444538
v -0.081591 4.449162 -4.430532
v -0.100460 4.459347 -4.418868
v -0.115945 4.471756 -4.404654
v -0.127452 4.485915 -4.388438
v -0.134538 4.501277 -4.370842
v -0.136930 4.517254 -4.352543
v -0.134538 4.533231 -4.334245
v -0.127452 4.548594 -4.316649
v -0.115945 4.562752 -4.300433
v -0.100460 4.575161 -4.286219
v -0.081592 4.585346 -4.274555
v -0.060064 4.592914 -4.265887
v -0.036706 4.597574 -4.260549
v -0.012414 4.599147 -4.258747
v 0.011878 4.597574 -4.260549
v 0.035236 4.592914 -4.265887
v 0.056763 4.585346 -4.274555
v 0.075632 4.575161 -4.286219
v 0.091117 4.562752 -4.300433
v 0.102624 4.548594 -4.316649
v 0.109710 4.533231 -4.334245
v 0.112102 4.517254 -4.352543
v 0.109710 4.501277 -4.370842
v 0.102624 4.485915 -4.388438
v 0.091117 4.471757 -4.404654
v 0.075632 4.459347 -4.418868
v 0.056763 4.449162 -4.430532
v 0.035236 4.441595 -4.439200
v 0.011878 4.436934 -4.444538
v -0.000268 4.436148 -4.445438
v -0.011242 4.435437 -4.446253
v -0.024560 4.436148 -4.445438
vt 0.543403 0.890625
vt 0.560485 0.890625
vt 0.469756 0.890625
vt 0.515840 0.890625
vt 0.511337 0.890625
vt 0.520280 0.890625
vt 0.426304 0.890625
vt 0.361627 0.890625
vt 0.326764 0.890625
vt 0.313147 0.890625
vt 0.312314 0.890625
vt 0.319046 0.890625
vt 0.330444 0.890625
vt 0.344877 0.890625
vt 0.361377 0.890625
vt 0.379338 0.890625
vt 0.398353 0.890625
vt 0.418135 0.890625
vt 0.438471 0.890625
vt 0.459196 0.890625
vt 0.480170 0.890625
vt 0.501271 0.890625
vt 0.522386 0.890625
vt 0.564202 0.890625
vt 0.584651 0.890625
vt 0.604590 0.890625
vt 0.623821 0.890625
vt 0.642078 0.890625
vt 0.658993 0.890625
vt 0.674019 0.890625
vt 0.686300 0.890625
vt 0.694414 0.890625
vt 0.695868 0.890625
vt 0.686164 0.890625
vt 0.657696 0.890625
vt 0.601086 0.890625
vn 0.0000 0.7533 -0.6577
vn 0.0000 0.7579 -0.6523
vn 0.0000 0.7544 -0.6563
vn 0.0000 0.7532 -0.6577
vn 0.0001 0.7531 -0.6579
vn 0.0000 0.7532 -0.6578
vn 0.0000 0.7533 -0.6576
vn -0.0001 0.7533 -0.6576
usemtl Black1
s 1
f 20/1/1 34/2/1 36/3/1
f 2/4/2 1/5/3 35/6/4
f 1/5/3 36/3/1 35/6/4
f 36/3/1 4/7/5 3/8/6
f 3/8/6 5/9/7 36/3/1
f 5/9/7 6/10/7 36/3/1
f 6/10/7 7/11/1 36/3/1
f 7/11/1 8/12/1 36/3/1
f 8/12/1 9/13/1 36/3/1
f 9/13/1 10/14/1 36/3/1
f 10/14/1 11/15/1 36/3/1
f 11/15/1 12/16/1 36/3/1
f 12/16/1 13/17/1 36/3/1
f 13/17/1 14/18/1 36/3/1
f 14/18/1 15/19/1 36/3/1
f 15/19/1 16/20/1 36/3/1
f 16/20/1 17/21/1 36/3/1
f 17/21/1 18/22/1 36/3/1
f 18/22/1 19/23/1 36/3/1
f 19/23/1 20/1/1 36/3/1
f 20/1/1 21/24/1 34/2/1
f 21/24/1 22/25/1 34/2/1
f 22/25/1 23/26/1 34/2/1
f 23/26/1 24/27/1 34/2/1
f 24/27/1 25/28/1 34/2/1
f 25/28/1 26/29/1 34/2/1
f 26/29/1 27/30/1 34/2/1
f 27/30/1 28/31/1 34/2/1
f 28/31/1 29/32/1 34/2/1
f 29/32/1 30/33/1 34/2/1
f 30/33/1 31/34/7 34/2/1
f 31/34/7 32/35/7 34/2/1
f 32/35/7 33/36/8 34/2/1
f 34/2/1 35/6/4 36/3/1
