# Blender v2.83.20 OBJ File: 'computer_graphics_dyson_V15_detect5.blend'
# www.blender.org
mtllib EngineBody2.mtl
o VaccumCleanerBody5(RED)_Cylinder.035
v 0.036399 3.519988 -3.825826
v -0.061146 3.519988 -3.825826
v -0.012374 3.503675 -3.844511
v 0.036399 3.506834 -3.840892
v -0.061146 3.506834 -3.840892
v 0.036399 3.491740 -3.801163
v -0.061146 3.491739 -3.801163
v 0.036399 3.478585 -3.816228
v -0.061146 3.478585 -3.816228
v -0.012374 3.475426 -3.819847
v 0.036399 3.505863 -3.813495
v -0.061146 3.505863 -3.813495
v 0.036399 3.492710 -3.828560
v -0.061146 3.492710 -3.828560
v 0.036399 3.504451 -3.812262
v -0.061146 3.504451 -3.812262
v 0.036399 3.491297 -3.827327
v -0.061146 3.491297 -3.827327
v -0.012374 3.488138 -3.830946
v -0.012374 3.490963 -3.833412
v 0.036399 3.507276 -3.814728
v -0.061146 3.507276 -3.814728
v 0.036399 3.494122 -3.829793
v -0.061146 3.494122 -3.829793
v -0.012374 3.455253 -3.868610
v -0.012374 3.456666 -3.869843
v 0.036399 3.461237 -3.867458
v 0.036399 3.459825 -3.866225
v -0.061146 3.461237 -3.867458
v -0.061146 3.459825 -3.866225
v 0.036399 3.458413 -3.864992
v -0.061146 3.458413 -3.864992
v -0.012374 3.458078 -3.871076
vt 0.031250 0.775000
vt 0.031250 0.766562
vt 0.031250 0.766563
vt 0.968750 0.756250
vt 0.968750 0.764688
vt 0.968750 0.764687
vt 0.968750 0.765625
vt 0.968750 0.766563
vt 0.968750 0.766563
vt 0.031250 0.765625
vt 0.031250 0.764688
vt 0.031250 0.764688
vt 0.031250 0.765625
vt 0.031250 0.764688
vt 0.968750 0.765625
vt 0.968750 0.766563
vt 0.031250 0.756250
vt 0.031250 0.756250
vt 0.968750 0.775000
vt 0.968750 0.775000
vt 0.031250 0.765625
vt 0.968750 0.765625
vt 0.031250 0.775000
vt 0.968750 0.756250
vt 0.031250 0.766562
vt 0.968750 0.764688
vt 0.000000 0.766563
vt 1.000000 0.775000
vt 1.000000 0.766563
vt 0.000000 0.756250
vt 1.000000 0.764687
vt 1.000000 0.756250
vt 0.000000 0.764687
vt 0.000000 0.764687
vt 1.000000 0.766563
vt 1.000000 0.765625
vt 1.000000 0.764687
vt 0.000000 0.765625
vt 0.000000 0.775000
vt 0.000000 0.766563
vn -1.0000 -0.0000 -0.0000
vn 1.0000 0.0000 0.0000
vn -0.7409 -0.4417 -0.5059
vn 0.0000 0.1002 -0.9950
vn -0.9149 0.0153 -0.4035
vn 0.0000 -0.6577 -0.7533
vn 0.9149 0.0153 -0.4035
vn -0.9149 -0.4018 -0.0393
vn -0.7409 -0.4417 -0.5058
vn 0.0000 -0.9994 -0.0349
vn 0.7409 -0.4417 -0.5058
vn -0.6022 -0.7978 -0.0279
vn 0.0000 -0.9952 -0.0973
vn 0.6022 0.0799 -0.7943
vn 0.0000 0.0378 -0.9993
vn 0.0000 -0.6577 -0.7532
vn 0.6022 -0.7978 -0.0279
vn -0.7409 -0.4416 -0.5059
vn 0.7409 -0.4416 -0.5059
vn -0.6021 0.0800 -0.7943
vn 0.9149 -0.4018 -0.0393
usemtl VaccumCleanerBody5(RED)
s off
f 2/1/1 24/2/1 22/3/1
f 6/4/2 17/5/2 15/6/2
f 11/7/2 23/8/2 21/9/2
f 12/10/1 18/11/1 16/12/1
f 14/13/1 32/14/1 18/11/1
f 13/15/2 27/16/2 23/8/2
f 16/12/1 9/17/1 7/18/1
f 15/6/2 13/15/2 11/7/2
f 21/9/2 4/19/2 1/20/2
f 22/3/1 14/13/1 12/10/1
f 24/2/1 30/21/1 14/13/1
f 17/5/2 28/22/2 13/15/2
f 2/1/1 5/23/1 24/2/1
f 6/4/2 8/24/2 17/5/2
f 11/7/2 13/15/2 23/8/2
f 12/10/1 14/13/1 18/11/1
f 14/13/1 30/21/1 32/14/1
f 13/15/2 28/22/2 27/16/2
f 16/12/1 18/11/1 9/17/1
f 15/6/2 17/5/2 13/15/2
f 21/9/2 23/8/2 4/19/2
f 22/3/1 24/2/1 14/13/1
f 24/2/1 29/25/1 30/21/1
f 17/5/2 31/26/2 28/22/2
s 1
f 5/23/3 20/27/4 24/2/5
f 3/28/6 23/8/7 20/29/4
f 18/11/8 10/30/6 9/17/9
f 19/31/10 8/24/11 10/32/6
f 19/33/10 32/14/12 25/34/13
f 20/29/4 27/16/14 33/35/15
f 26/36/16 31/26/17 25/37/13
f 30/21/18 25/34/13 32/14/12
f 33/35/15 28/22/19 26/36/16
f 29/25/20 26/38/16 30/21/18
f 20/27/4 29/25/20 24/2/5
f 19/31/10 31/26/17 17/5/21
f 5/23/3 3/39/6 20/27/4
f 3/28/6 4/19/11 23/8/7
f 18/11/8 19/33/10 10/30/6
f 19/31/10 17/5/21 8/24/11
f 19/33/10 18/11/8 32/14/12
f 20/29/4 23/8/7 27/16/14
f 26/36/16 28/22/19 31/26/17
f 30/21/18 26/38/16 25/34/13
f 33/35/15 27/16/14 28/22/19
f 29/25/20 33/40/15 26/38/16
f 20/27/4 33/40/15 29/25/20
f 19/31/10 25/37/13 31/26/17
